<svg width="88" height="74" viewBox="0 0 88 74" fill="none" xmlns="http://www.w3.org/2000/svg">
<path d="M86.9688 64.3438C86.9688 66.4158 86.1456 68.4029 84.6805 69.868C83.2154 71.3331 81.2283 72.1562 79.1562 72.1562H8.84375C6.77175 72.1562 4.78461 71.3331 3.31948 69.868C1.85435 68.4029 1.03125 66.4158 1.03125 64.3438V21.375C1.03125 19.303 1.85435 17.3159 3.31948 15.8507C4.78461 14.3856 6.77175 13.5625 8.84375 13.5625H24.4688L32.2812 1.84375H55.7188L63.5312 13.5625H79.1562C81.2283 13.5625 83.2154 14.3856 84.6805 15.8507C86.1456 17.3159 86.9688 19.303 86.9688 21.375V64.3438Z" stroke="white" stroke-width="3" stroke-linecap="round" stroke-linejoin="round"/>
<path d="M44 56.5312C52.6294 56.5312 59.625 49.5357 59.625 40.9062C59.625 32.2768 52.6294 25.2812 44 25.2812C35.3706 25.2812 28.375 32.2768 28.375 40.9062C28.375 49.5357 35.3706 56.5312 44 56.5312Z" stroke="white" stroke-width="3" stroke-linecap="round" stroke-linejoin="round"/>
</svg>
