<svg width="50" height="50" viewBox="0 0 50 50" fill="none" xmlns="http://www.w3.org/2000/svg">
<path d="M8.29615 0.000244141C9.36345 -0.00156784 10.418 0.116177 11.3823 0.34483C12.3466 0.573483 13.1962 0.90723 13.8686 1.32155L48.3748 22.7481C49.4256 23.3871 50 24.1886 50 25.0157C50 25.8429 49.4256 26.6444 48.3748 27.2834L12.6541 48.7099C11.4414 49.4392 9.6989 49.8978 7.8098 49.9849C5.9207 50.072 4.03979 49.7803 2.58083 49.1742C1.12188 48.568 0.204399 47.697 0.0302277 46.7527C-0.143944 45.8084 0.439457 44.8682 1.6521 44.1389L33.5864 24.9979L2.72372 5.85683C1.85011 5.33265 1.29517 4.69436 1.12458 4.01746C0.953976 3.34056 1.17485 2.6534 1.76107 2.03728C2.34729 1.42117 3.27431 0.901897 4.43245 0.540894C5.59059 0.17989 6.93137 -0.00772476 8.29615 0.000244141Z" fill="white"/>
</svg>
