<svg width="150" height="150" viewBox="0 0 150 150" fill="none" xmlns="http://www.w3.org/2000/svg">
<path d="M82.8752 22.4992L31.5627 76.8117C29.6252 78.8742 27.7502 82.9367 27.3752 85.7492L25.0627 105.999C24.2502 113.312 29.5002 118.312 36.7502 117.062L56.8752 113.624C59.6877 113.124 63.6252 111.062 65.5627 108.937L116.875 54.6242C125.75 45.2492 129.75 34.5617 115.938 21.4992C102.188 8.56166 91.7502 13.1242 82.8752 22.4992Z" fill="white" stroke="white" stroke-width="5" stroke-miterlimit="10" stroke-linecap="round" stroke-linejoin="round"/>
<g opacity="0.3">
<path d="M74.3125 31.5625C77 48.8125 91 62 108.375 63.75Z" fill="white"/>
<path d="M74.3125 31.5625C77 48.8125 91 62 108.375 63.75" stroke="white" stroke-width="5" stroke-miterlimit="10" stroke-linecap="round" stroke-linejoin="round"/>
</g>
<path opacity="0.3" d="M18.75 137.5H131.25" stroke="white" stroke-width="5" stroke-miterlimit="10" stroke-linecap="round" stroke-linejoin="round"/>
</svg>
