<svg width="200" height="200" viewBox="0 0 200 200" fill="none" xmlns="http://www.w3.org/2000/svg">
<path d="M161.166 120.751L152.833 106.917C151.083 103.834 149.499 98.0008 149.499 94.5842V73.5008C149.499 46.3341 127.416 24.1675 100.166 24.1675C72.9159 24.1675 50.8325 46.3341 50.8325 73.5008V94.5842C50.8325 98.0008 49.2492 103.834 47.4992 106.834L39.0825 120.751C35.7492 126.334 34.9992 132.501 37.0825 138.167C39.0825 143.751 43.8325 148.084 49.9992 150.167C66.1659 155.667 83.1659 158.334 100.166 158.334C117.166 158.334 134.166 155.667 150.333 150.251C156.166 148.334 160.666 143.917 162.833 138.167C164.999 132.417 164.416 126.084 161.166 120.751Z" fill="#FCCB06"/>
<path d="M118.75 27.666C113 25.416 106.75 24.166 100.167 24.166C93.667 24.166 87.417 25.3327 81.667 27.666C85.2503 20.916 92.3337 16.666 100.167 16.666C108.084 16.666 115.084 20.916 118.75 27.666Z" fill="#FCCB06"/>
<path d="M123.584 166.749C120.084 176.416 110.834 183.333 100.001 183.333C93.4176 183.333 86.9176 180.666 82.3343 175.916C79.6676 173.416 77.6676 170.083 76.501 166.666C77.5843 166.833 78.6676 166.916 79.8343 167.083C81.751 167.333 83.751 167.583 85.751 167.749C90.501 168.166 95.3343 168.416 100.168 168.416C104.918 168.416 109.668 168.166 114.334 167.749C116.084 167.583 117.834 167.499 119.501 167.249C120.834 167.083 122.168 166.916 123.584 166.749Z" fill="#FCCB06"/>
</svg>
