<svg width="125" height="125" viewBox="0 0 125 125" fill="none" xmlns="http://www.w3.org/2000/svg">
<path d="M36.25 0H88.75C108.75 0 125 16.25 125 36.25V88.75C125 98.3641 121.181 107.584 114.383 114.383C107.584 121.181 98.3641 125 88.75 125H36.25C16.25 125 0 108.75 0 88.75V36.25C0 26.6359 3.81919 17.4156 10.6174 10.6174C17.4156 3.81919 26.6359 0 36.25 0ZM35 12.5C29.0326 12.5 23.3097 14.8705 19.0901 19.0901C14.8705 23.3097 12.5 29.0326 12.5 35V90C12.5 102.438 22.5625 112.5 35 112.5H90C95.9674 112.5 101.69 110.129 105.91 105.91C110.129 101.69 112.5 95.9674 112.5 90V35C112.5 22.5625 102.438 12.5 90 12.5H35ZM95.3125 21.875C97.3845 21.875 99.3717 22.6981 100.837 24.1632C102.302 25.6284 103.125 27.6155 103.125 29.6875C103.125 31.7595 102.302 33.7466 100.837 35.2118C99.3717 36.6769 97.3845 37.5 95.3125 37.5C93.2405 37.5 91.2533 36.6769 89.7882 35.2118C88.3231 33.7466 87.5 31.7595 87.5 29.6875C87.5 27.6155 88.3231 25.6284 89.7882 24.1632C91.2533 22.6981 93.2405 21.875 95.3125 21.875ZM62.5 31.25C70.788 31.25 78.7366 34.5424 84.5971 40.4029C90.4576 46.2634 93.75 54.212 93.75 62.5C93.75 70.788 90.4576 78.7366 84.5971 84.5971C78.7366 90.4576 70.788 93.75 62.5 93.75C54.212 93.75 46.2634 90.4576 40.4029 84.5971C34.5424 78.7366 31.25 70.788 31.25 62.5C31.25 54.212 34.5424 46.2634 40.4029 40.4029C46.2634 34.5424 54.212 31.25 62.5 31.25ZM62.5 43.75C57.5272 43.75 52.7581 45.7254 49.2417 49.2417C45.7254 52.7581 43.75 57.5272 43.75 62.5C43.75 67.4728 45.7254 72.242 49.2417 75.7583C52.7581 79.2746 57.5272 81.25 62.5 81.25C67.4728 81.25 72.242 79.2746 75.7583 75.7583C79.2746 72.242 81.25 67.4728 81.25 62.5C81.25 57.5272 79.2746 52.7581 75.7583 49.2417C72.242 45.7254 67.4728 43.75 62.5 43.75Z" fill="white"/>
</svg>
