<svg width="150" height="150" viewBox="0 0 150 150" fill="none" xmlns="http://www.w3.org/2000/svg">
<path d="M106.25 115.188H81.25L53.4374 133.688C49.3124 136.438 43.75 133.5 43.75 128.5V115.188C25 115.188 12.5 102.688 12.5 83.9379V46.4375C12.5 27.6875 25 15.1875 43.75 15.1875H106.25C125 15.1875 137.5 27.6875 137.5 46.4375V83.9379C137.5 102.688 125 115.188 106.25 115.188Z" stroke="white" stroke-width="5" stroke-miterlimit="10" stroke-linecap="round" stroke-linejoin="round"/>
<path opacity="0.3" d="M75.0001 71V69.6877C75.0001 65.4377 77.6252 63.1876 80.2502 61.3751C82.8127 59.6251 85.3749 57.3752 85.3749 53.2502C85.3749 47.5002 80.7501 42.875 75.0001 42.875C69.2501 42.875 64.6252 47.5002 64.6252 53.2502" stroke="#919397" stroke-width="2.5" stroke-linecap="round" stroke-linejoin="round"/>
<path d="M74.9719 85.9375H75.0281" stroke="#919397" stroke-width="2.5" stroke-linecap="round" stroke-linejoin="round"/>
</svg>
