<svg width="500" height="500" viewBox="0 0 500 500" fill="none" xmlns="http://www.w3.org/2000/svg">
<path d="M462.712 249.886C462.712 367.438 367.439 462.712 249.887 462.712C132.335 462.712 37.0518 367.438 37.0518 249.886C37.0518 132.335 132.335 37.0513 249.887 37.0513C367.439 37.0513 462.712 132.335 462.712 249.886Z" fill="#FCCB06" fill-opacity="0.1"/>
<path d="M398.71 178.53V332.125C398.71 336.543 396.27 340.601 392.347 342.658L261.302 411.714C257.839 413.552 253.668 413.552 250.205 411.714L119.167 342.658C115.23 340.601 112.802 336.543 112.802 332.125V178.53C112.802 174.113 115.23 170.052 119.167 168.008L250.205 98.9417C253.668 97.1067 257.839 97.1067 261.302 98.9417L302.761 120.783L344.426 142.733L392.347 168.008C396.27 170.052 398.71 174.113 398.71 178.53Z" fill="#FCCB06"/>
<path d="M344.426 142.732L207.051 212.281C203.06 214.299 200.548 218.398 200.548 222.926V284.525C200.548 289.894 193.977 292.506 190.264 288.653L178.502 276.321C177.052 274.834 174.967 274.199 172.948 274.626L165.249 276.283C161.534 277.095 158.042 274.279 158.042 270.455V201.403C158.042 196.918 160.542 192.776 164.569 190.76L302.761 120.783L344.426 142.732Z" fill="#FCCB06" fill-opacity="0.1"/>
<path d="M393.407 332.137C393.407 334.597 392.064 336.835 389.872 337.98L261.055 405.884V246.685C261.897 246.424 262.741 246.106 263.539 245.703L393.407 179.965V332.137ZM252.77 236.249L212.114 215.664L344.396 148.708L387.152 171.239L258.75 236.249C256.874 237.187 254.651 237.187 252.77 236.249ZM250.453 405.884L121.636 337.98C119.456 336.835 118.103 334.597 118.103 332.137V179.965L153.168 197.702C152.908 198.903 152.741 200.133 152.741 201.389V270.469C152.741 273.881 154.258 277.083 156.922 279.225C159.572 281.361 163.011 282.193 166.365 281.474L174.054 279.818C174.264 279.774 174.51 279.847 174.662 280.008L186.453 292.325C188.633 294.587 191.56 295.788 194.557 295.788C195.978 295.788 197.398 295.527 198.779 294.975C203.074 293.251 205.835 289.147 205.835 284.525V224.361L247.996 245.703C248.784 246.106 249.611 246.424 250.453 246.685V405.884ZM252.676 103.619C253.641 103.111 254.704 102.85 255.753 102.85C256.816 102.85 257.882 103.111 258.832 103.619L291.261 120.698L162.169 186.039C160.831 186.714 159.616 187.57 158.523 188.539L124.353 171.239L252.676 103.619ZM332.896 142.648L204.675 207.547C198.849 210.489 195.232 216.385 195.232 222.898V284.525C195.232 284.677 195.232 284.966 194.818 285.132C194.417 285.311 194.21 285.091 194.114 284.98L182.31 272.664C179.632 269.862 175.6 268.649 171.817 269.449L164.127 271.106C163.922 271.149 163.741 271.12 163.577 270.983C163.411 270.846 163.343 270.679 163.343 270.469V201.389C163.343 198.891 164.72 196.627 166.958 195.493L302.76 126.758L332.896 142.648ZM401.147 169.059C401.111 169.015 401.077 168.962 401.041 168.921C399.486 166.602 397.4 164.656 394.82 163.301L263.775 94.2348C258.764 91.5969 252.756 91.5969 247.735 94.2348L116.693 163.301C114.127 164.656 112.027 166.602 110.469 168.921C110.426 168.962 110.399 169.001 110.37 169.044C108.55 171.805 107.501 175.077 107.501 178.53V332.137C107.501 338.544 111.021 344.367 116.693 347.365L247.735 416.416C250.248 417.759 253.006 418.393 255.753 418.393C258.514 418.393 261.277 417.759 263.775 416.416L394.82 347.365C400.511 344.367 404.009 338.544 404.009 332.137V178.53C404.009 175.077 402.985 171.817 401.147 169.059Z" fill="#010102"/>
<mask id="mask0_1124_1207" style="mask-type:luminance" maskUnits="userSpaceOnUse" x="31" y="31" width="437" height="437">
<path d="M31.8311 31.8311H467.942V467.942H31.8311V31.8311Z" fill="white"/>
</mask>
<g mask="url(#mask0_1124_1207)">
<path d="M249.887 42.3537C135.455 42.3537 42.3514 135.457 42.3514 249.889C42.3538 364.32 135.455 457.412 249.887 457.412C364.318 457.412 457.41 364.32 457.41 249.889C457.41 135.457 364.318 42.3537 249.887 42.3537ZM249.887 468.005C129.603 468.005 31.749 370.16 31.749 249.877C31.7514 129.593 129.603 31.7417 249.887 31.7417C370.17 31.7417 468.012 129.593 468.012 249.877C468.012 370.16 370.17 468.005 249.887 468.005Z" fill="white"/>
</g>
<path d="M99.3828 405.708C98.0301 405.708 96.6749 405.177 95.6405 404.116C93.5717 402.067 93.5717 398.71 95.6405 396.624L396.624 95.6405C398.71 93.5717 402.067 93.5717 404.116 95.6405C406.202 97.7118 406.202 101.068 404.116 103.14L103.14 404.116C102.105 405.177 100.736 405.708 99.3828 405.708Z" fill="#010102"/>
</svg>
