<svg width="150" height="150" viewBox="0 0 150 150" fill="none" xmlns="http://www.w3.org/2000/svg">
<rect width="150" height="150" fill="#2D2929"/>
<path opacity="0.3" d="M75 93.75C85.3553 93.75 93.75 85.3553 93.75 75C93.75 64.6447 85.3553 56.25 75 56.25C64.6447 56.25 56.25 64.6447 56.25 75C56.25 85.3553 64.6447 93.75 75 93.75Z" stroke="#010102" stroke-width="5" stroke-miterlimit="10" stroke-linecap="round" stroke-linejoin="round"/>
<path d="M12.5 80.5V69.5C12.5 63 17.8125 57.625 24.375 57.625C35.6875 57.625 40.3125 49.625 34.625 39.8125C31.375 34.1875 33.3125 26.875 39 23.625L49.8125 17.4375C54.75 14.5 61.125 16.25 64.0625 21.1875L64.75 22.375C70.375 32.1875 79.625 32.1875 85.3125 22.375L86 21.1875C88.9375 16.25 95.3125 14.5 100.25 17.4375L111.063 23.625C116.75 26.875 118.687 34.1875 115.437 39.8125C109.75 49.625 114.375 57.625 125.688 57.625C132.188 57.625 137.563 62.9375 137.563 69.5V80.5C137.563 87 132.25 92.375 125.688 92.375C114.375 92.375 109.75 100.375 115.437 110.187C118.687 115.875 116.75 123.125 111.063 126.375L100.25 132.562C95.3125 135.5 88.9375 133.75 86 128.812L85.3125 127.625C79.6875 117.812 70.4375 117.812 64.75 127.625L64.0625 128.812C61.125 133.75 54.75 135.5 49.8125 132.562L39 126.375C33.3125 123.125 31.375 115.812 34.625 110.187C40.3125 100.375 35.6875 92.375 24.375 92.375C17.8125 92.375 12.5 87 12.5 80.5Z" stroke="white" stroke-width="5" stroke-miterlimit="10" stroke-linecap="round" stroke-linejoin="round"/>
</svg>
